<?xml version="1.0" encoding="utf-8"?>
<!-- Generator: Adobe Illustrator 19.2.1, SVG Export Plug-In . SVG Version: 6.00 Build 0)  -->
<svg version="1.1" id="Layer_1" xmlns="http://www.w3.org/2000/svg" xmlns:xlink="http://www.w3.org/1999/xlink" x="0px" y="0px"
	 viewBox="0 0 378.7 143.8" style="enable-background:new 0 0 378.7 143.8;" xml:space="preserve">
<style type="text/css">
	.st0{fill:#FCF1DD;}
	.st1{fill:#ED4C80;}
	.st2{font-family:'HelveticaNeueLTStd-HvEx';}
	.st3{font-size:48.8246px;}
</style>
<g>
	<path class="st0" d="M287.8,18.6c-5.8-6.6-15.3-7.8-24.4-8.8l-2.7,1.2c-9.5-4.6-19.1-2.4-28.2,0.8l-15.7,8.9
		c-11,5.8-15.3-9.1-23.5-12.7c-7-2.8-13.5,0.3-19.2,3.4c-0.8,7.1-9,8.9-13.9,12.2c1,2.2,1.2,4.7,2.9,6.7c2.6,1.3,6.2,2.3,9.1,1.3
		c3.5,2.5,11.4-1.7,11.5,5.3c-0.5,8.5-1,16.2-1.6,25.5l-2.1,1.8l-10.8,15c-5.4,6.1-13.9,4.9-18.4,12c6.1,4.1,12.1-3.6,19,0.5
		c0-2.6,3-0.1,4-1.7c2.2-5.2,8.3-9.1,13.2-11.6l22.6-5.1c2.1-4-0.8-10.5,4.7-12.8c8.4-3.3,16.6-7.3,23.9-14.2l2.5,2.8
		c0.2,5.9,10.1,8.4,6.8,15.5c-3.6,6.4-10.4,3.6-14.9,7.6c1.4,3.9,6.5,1.4,9.7,1.9c4-5.5,10.7-7.8,12.7-14.2c-2.5-3.1-4.8-7-3.2-10.7
		c3.2,11.2,19.5,19.5,11.7,32.9c-3.5,1.5-2.5,5.2-5.7,6.9c2.6,1.9,4.9-0.6,7.9,0.5c1.2-1.7,2.8-3.3,2.3-5.8l3.6-16.2
		c-1.9-3.4-5.3-6.3-5.9-10.2c-5-13.3,9.5-18.8,7.3-31.7C277.9,23.2,284.4,23.9,287.8,18.6z M184.7,71.8c2.4-3.2,6.1-5.6,7.1-9.4
		c2.1,0.8,4.4,1.3,5.7,3.7C196.3,71.7,189.2,70.6,184.7,71.8z M267.1,14l7.7,2.4C272.5,17.9,268.9,16.2,267.1,14z"/>
</g>
<g>
	<g id="Icons_1_">
		<path class="st1" d="M288.5,115.9c1.9-7.6-2.8-15.3-10.4-17.2c-5-1.2-10,0.4-13.3,3.7c-1.5-4.5-5.2-8.2-10.1-9.4
			c-7.6-1.9-15.3,2.8-17.2,10.4c-1,4.1-0.1,8.3,2.2,11.5l14.8,24.3c0.3,0.4,0.7,0.7,1.1,0.8c0.5,0.1,1,0,1.4-0.2l24.3-14.8
			C284.7,123.3,287.5,120,288.5,115.9z"/>
	</g>
</g>
<text transform="matrix(1 0 0 1 38 134.1614)" class="st0 st2 st3">PLAYB    </text>
<path class="st0" d="M122.7,7.2c0,0,3.2-1.1,3.5-2c0.2-0.9,0.3-2.8,0.7-3.3c0.4-0.5,0.8,1.8,1.3,2.5c0.5,0.7,0.8,0.5,3.8,0.4
	c0,0,1.7-0.3,4.4,1.6c2.7,1.9,1.9,1.4,2.8,1.3c0.9-0.1,3.2-0.8,5.2-0.4c2,0.3,2.8-0.8,4.1,0.2c1.3,1.1,0.7,2.5,0.5,3.3
	c-0.2,0.7-0.9,2.3-1.3,2.7c-0.4,0.4-0.1,0.4,0.2,0.8c0.3,0.4-0.3,2-1.4,3.3c-1.1,1.2-3.5,1.9-6.2,3.4c-2.7,1.5-4,1.7-4,2.4
	c0,0.7,0.6,2.3,0.9,5.5c0.3,3.2,0.5,2.5,1.5,3.8c1,1.3,1.9,2.8,2.1,2.6c0.2-0.2,2.1-2.5,3.3-2.5c1.1,0,2.7-1.1,3.8-1.7
	s3.1-1.9,4.1-1.8c1.1,0.1,3-0.3,3.6,1.2c0.5,1.5,0.6,3.6-0.7,4.7c-1.3,1.2-2.2,0.9-3,1.5c-0.8,0.6-3.1,0.8-4.2,1.6
	c-1.1,0.8-3.8,3.4-4.1,4.9c-0.4,1.5-0.1,1.7-1.7,2.2c-1.6,0.5-2.2,0.2-2.4,0.7c-0.2,0.5-0.6,3-1.5,4.4c0,0-0.3,0.3,0,0.5
	c0.3,0.2,0.5,2-3.4,4.2c-3.9,2.1-3.5,2.6-5.1,3.7c-1.6,1.1-5.7,3.4-7,4.6c-1.3,1.2-8.2,6.1-9.5,6.8c-1.3,0.6,0.7,1.6-0.2,3.7
	c-0.9,2.2-0.8,3.7-1.7,5c-0.8,1.3-0.5,1.3,0.7,4.2c1.2,2.8,3.4,3.2,4.4,3.8c0.9,0.5,2.6,1.9,1.7,3.1c-0.9,1.3-2.7,2.4-3.6,2.1
	c-0.9-0.3-3.7-1.9-6.1-4.9c-2.4-3.1-4.8-5.7-5.6-7c-0.8-1.3-1.9-3-2.3-3.1c-0.4-0.1-3.5,0.3-4,0c-0.5-0.4-4.2-3.1-4.4-2.9
	c-0.1,0.1,0.2,1.7,0.4,1.8c0.2,0.2,2.5,1.6,2.3,3.1c-0.2,1.5-1,2.4-1.9,2.7c-0.9,0.3-2.2,0.1-5.3-3c0,0-0.7-0.5-0.7-2.5
	c-0.1-2-1.5-1.9-1.5-3.4c0-1.5,0-1.5,0-1.5s0.1-0.6,0-1.8c-0.1-1.2,0-2.7,0.4-5c0.4-2.4,1.6-5.7,1.6-6.2c0.1-0.4-0.2-1.8,0.3-3.3
	c0.5-1.5,1.6-3.2,2.9-2.8c1.3,0.3,1.8,1,2.3,1c0.5-0.1,2-0.5,2.7-0.1c0.7,0.3,1.8,0.1,2.8-0.9c1-1,3.7-3,5.2-4.2
	c1.5-1.2,10.2-8.5,10.7-9.8c0.5-1.2,1.5-5.1,2.5-11.6c1-6.5,1.3-8.7,1.1-9.4c-0.3-0.6-0.8-1.9-0.9-2.5c-0.1-0.7-1.4-0.7-2.3-2
	c-0.9-1.4-6.4-10.3-4-11.4c0,0,0.3-0.6,2.8,0.8C115.5,3.4,120.8,7.8,122.7,7.2z"/>
<text transform="matrix(1 0 0 1 283.6665 134.1612)" class="st0 st2 st3">W</text>
</svg>
