<?xml version="1.0" encoding="utf-8"?>
<!-- Generator: Adobe Illustrator 19.2.1, SVG Export Plug-In . SVG Version: 6.00 Build 0)  -->
<svg version="1.1" id="Layer_1" xmlns="http://www.w3.org/2000/svg" xmlns:xlink="http://www.w3.org/1999/xlink" x="0px" y="0px"
	 viewBox="0 0 287.2 141.9" style="enable-background:new 0 0 287.2 141.9;" xml:space="preserve">
<style type="text/css">
	.st0{fill:#ED4C80;}
	.st1{fill:#FCF1DD;}
	.st2{font-family:'Pacifico';}
	.st3{font-size:72px;}
</style>
<g>
	<g id="Icons_4_">
		<path class="st0" d="M215.8,49.7c1.6-6.4-2.3-12.8-8.7-14.4c-4.2-1-8.3,0.3-11.2,3.1c-1.2-3.8-4.3-6.9-8.5-7.9
			c-6.4-1.6-12.8,2.3-14.4,8.7c-0.8,3.5-0.1,6.9,1.8,9.7l12.4,20.3c0.2,0.3,0.6,0.6,0.9,0.7c0.4,0.1,0.8,0,1.2-0.2l20.3-12.4
			C212.6,55.9,214.9,53.2,215.8,49.7z"/>
	</g>
</g>
<text transform="matrix(0.9969 -7.812626e-02 7.812626e-02 0.9969 24.5168 85.2099)" class="st1 st2 st3">playb  </text>
<g>
	<path class="st1" d="M261.7,89.3c-3.5-3.9-9.2-4.7-14.6-5.3l-1.6,0.7c-5.7-2.8-11.4-1.4-16.9,0.5l-9.4,5.3
		c-6.6,3.5-9.2-5.5-14.1-7.6c-4.2-1.7-8.1,0.2-11.5,2.1c-0.5,4.2-5.4,5.3-8.3,7.3c0.6,1.3,0.7,2.8,1.7,4c1.6,0.8,3.7,1.4,5.4,0.7
		c2.1,1.5,6.8-1,6.9,3.2c-0.3,5.1-0.6,9.7-1,15.3l-1.2,1.1l-6.5,9c-3.3,3.7-8.3,2.9-11,7.2c3.6,2.5,7.2-2.2,11.4,0.3
		c0-1.6,1.8-0.1,2.4-1c1.3-3.1,5-5.5,7.9-7l13.6-3.1c1.3-2.4-0.5-6.3,2.8-7.7c5.1-2,10-4.4,14.3-8.5l1.5,1.7c0.1,3.5,6.1,5,4.1,9.3
		c-2.1,3.9-6.2,2.2-8.9,4.5c0.9,2.4,3.9,0.8,5.8,1.1c2.4-3.3,6.4-4.7,7.6-8.5c-1.5-1.9-2.9-4.2-1.9-6.4c1.9,6.7,11.7,11.7,7,19.7
		c-2.1,0.9-1.5,3.1-3.4,4.1c1.6,1.2,2.9-0.3,4.7,0.3c0.7-1,1.7-2,1.4-3.5l2.2-9.7c-1.2-2.1-3.2-3.8-3.5-6.1c-3-8,5.7-11.3,4.3-19
		C255.8,92.1,259.7,92.5,261.7,89.3z M200,121.2c1.4-1.9,3.6-3.4,4.3-5.6c1.3,0.5,2.6,0.8,3.4,2.2
		C206.9,121.1,202.7,120.4,200,121.2z M249.3,86.6l4.6,1.5C252.6,88.9,250.4,87.9,249.3,86.6z"/>
</g>
<path class="st1" d="M162.8,81.5c0,0,1.9-0.7,2.1-1.2c0.1-0.6,0.2-1.7,0.4-2c0.3-0.3,0.5,1.1,0.8,1.5c0.3,0.4,0.5,0.3,2.3,0.3
	c0,0,1-0.2,2.6,1c1.6,1.2,1.1,0.9,1.7,0.8c0.5-0.1,1.9-0.5,3.1-0.3c1.2,0.2,1.7-0.5,2.5,0.1c0.8,0.6,0.4,1.5,0.3,1.9
	c-0.1,0.4-0.5,1.4-0.8,1.6c-0.2,0.2-0.1,0.2,0.1,0.5c0.2,0.2-0.2,1.2-0.8,1.9c-0.7,0.7-2.1,1.1-3.7,2c-1.6,0.9-2.4,1-2.4,1.4
	c0,0.4,0.4,1.4,0.5,3.3c0.2,1.9,0.3,1.5,0.9,2.3c0.6,0.8,1.1,1.7,1.2,1.6c0.1-0.1,1.3-1.5,2-1.5c0.7,0,1.6-0.7,2.3-1
	c0.7-0.3,1.8-1.1,2.5-1.1c0.6,0.1,1.8-0.2,2.1,0.7c0.3,0.9,0.4,2.1-0.4,2.8c-0.8,0.7-1.3,0.5-1.8,0.9c-0.5,0.4-1.9,0.5-2.5,1
	c-0.7,0.5-2.2,2-2.5,2.9c-0.2,0.9-0.1,1-1,1.3c-0.9,0.3-1.3,0.1-1.5,0.4c-0.1,0.3-0.4,1.8-0.9,2.6c0,0-0.2,0.2,0,0.3
	c0.2,0.1,0.3,1.2-2,2.5c-2.3,1.3-2.1,1.6-3.1,2.2c-1,0.7-3.4,2-4.2,2.7c-0.8,0.7-4.9,3.7-5.7,4.1c-0.8,0.4,0.4,0.9-0.1,2.2
	c-0.5,1.3-0.5,2.2-1,3c-0.5,0.8-0.3,0.8,0.4,2.5c0.7,1.7,2,1.9,2.6,2.3c0.6,0.3,1.6,1.1,1,1.9c-0.6,0.8-1.6,1.5-2.2,1.3
	c-0.5-0.2-2.2-1.1-3.7-3c-1.5-1.8-2.9-3.4-3.4-4.2c-0.5-0.8-1.2-1.8-1.4-1.8c-0.2-0.1-2.1,0.2-2.4,0c-0.3-0.2-2.5-1.8-2.6-1.8
	c-0.1,0.1,0.1,1,0.2,1.1c0.1,0.1,1.5,1,1.4,1.8c-0.1,0.9-0.6,1.4-1.1,1.6c-0.5,0.2-1.3,0.1-3.2-1.8c0,0-0.4-0.3-0.4-1.5
	c0-1.2-0.9-1.1-0.9-2c0-0.9,0-0.9,0-0.9s0-0.4,0-1.1c-0.1-0.7,0-1.6,0.2-3c0.3-1.4,0.9-3.4,1-3.7c0-0.3-0.1-1.1,0.2-2
	c0.3-0.9,1-1.9,1.8-1.7c0.8,0.2,1.1,0.6,1.4,0.6c0.3,0,1.2-0.3,1.6-0.1c0.4,0.2,1.1,0,1.7-0.5c0.6-0.6,2.2-1.8,3.1-2.5
	c0.9-0.7,6.1-5.1,6.4-5.9c0.3-0.7,0.9-3,1.5-6.9c0.6-3.9,0.8-5.2,0.7-5.6c-0.2-0.4-0.5-1.1-0.5-1.5c-0.1-0.4-0.9-0.4-1.4-1.2
	c-0.5-0.8-3.8-6.2-2.4-6.8c0,0,0.2-0.3,1.7,0.5C158.4,79.2,161.6,81.9,162.8,81.5z"/>
<text transform="matrix(0.9953 -9.725691e-02 9.725691e-02 0.9953 212.1001 66.8872)" class="st1 st2 st3">w</text>
</svg>
